<?xml version="1.0" encoding="UTF-8" standalone="no"?>
<!DOCTYPE svg PUBLIC "-//W3C//DTD SVG 1.1//EN"
 "http://www.w3.org/Graphics/SVG/1.1/DTD/svg11.dtd">
<!-- Generated by graphviz version 2.43.0 (0)
 -->
<!-- Title: G Pages: 1 -->
<svg width="554pt" height="188pt"
 viewBox="0.00 0.00 553.88 188.00" xmlns="http://www.w3.org/2000/svg" xmlns:xlink="http://www.w3.org/1999/xlink">
<g id="graph0" class="graph" transform="scale(1 1) rotate(0) translate(4 184)">
<title>G</title>
<polygon fill="white" stroke="transparent" points="-4,4 -4,-184 549.88,-184 549.88,4 -4,4"/>
<!-- 0 -->
<g id="node1" class="node">
<title>0</title>
<ellipse fill="none" stroke="black" cx="272.94" cy="-162" rx="74.99" ry="18"/>
<text text-anchor="middle" x="272.94" y="-158.3" font-family="Times,serif" font-size="14.00">psi ~ uniform</text>
</g>
<!-- 1 -->
<g id="node2" class="node">
<title>1</title>
<ellipse fill="none" stroke="black" cx="133.94" cy="-90" rx="129.98" ry="18"/>
<text text-anchor="middle" x="133.94" y="-86.3" font-family="Times,serif" font-size="14.00">theta ~ normal(sigma=1)</text>
</g>
<!-- 0&#45;&gt;1 -->
<g id="edge1" class="edge">
<title>0&#45;&gt;1</title>
<path fill="none" stroke="black" d="M242.09,-145.46C222.58,-135.64 197.12,-122.82 175.8,-112.08"/>
<polygon fill="black" stroke="black" points="177.14,-108.84 166.64,-107.47 173.99,-115.09 177.14,-108.84"/>
</g>
<!-- 2 -->
<g id="node3" class="node">
<title>2</title>
<ellipse fill="none" stroke="black" cx="412.94" cy="-90" rx="129.98" ry="18"/>
<text text-anchor="middle" x="412.94" y="-86.3" font-family="Times,serif" font-size="14.00">theta ~ normal(sigma=5)</text>
</g>
<!-- 0&#45;&gt;2 -->
<g id="edge2" class="edge">
<title>0&#45;&gt;2</title>
<path fill="none" stroke="black" d="M304.01,-145.46C323.66,-135.64 349.31,-122.82 370.78,-112.08"/>
<polygon fill="black" stroke="black" points="372.62,-115.07 380,-107.47 369.49,-108.81 372.62,-115.07"/>
</g>
<!-- 3 -->
<g id="node4" class="node">
<title>3</title>
<ellipse fill="none" stroke="black" cx="131.94" cy="-18" rx="131.88" ry="18"/>
<text text-anchor="middle" x="131.94" y="-14.3" font-family="Times,serif" font-size="14.00">y[0] ~ normal(sigma=0.1)</text>
</g>
<!-- 1&#45;&gt;3 -->
<g id="edge3" class="edge">
<title>1&#45;&gt;3</title>
<path fill="none" stroke="black" d="M133.44,-71.7C133.22,-63.98 132.96,-54.71 132.71,-46.11"/>
<polygon fill="black" stroke="black" points="136.21,-46 132.43,-36.1 129.21,-46.2 136.21,-46"/>
</g>
<!-- 4 -->
<g id="node5" class="node">
<title>4</title>
<ellipse fill="none" stroke="black" cx="413.94" cy="-18" rx="131.88" ry="18"/>
<text text-anchor="middle" x="413.94" y="-14.3" font-family="Times,serif" font-size="14.00">y[1] ~ normal(sigma=0.1)</text>
</g>
<!-- 2&#45;&gt;4 -->
<g id="edge4" class="edge">
<title>2&#45;&gt;4</title>
<path fill="none" stroke="black" d="M413.19,-71.7C413.3,-63.98 413.43,-54.71 413.55,-46.11"/>
<polygon fill="black" stroke="black" points="417.05,-46.15 413.69,-36.1 410.05,-46.05 417.05,-46.15"/>
</g>
</g>
</svg>
