<?xml version="1.0" encoding="UTF-8" standalone="no"?>
<!DOCTYPE svg PUBLIC "-//W3C//DTD SVG 1.1//EN"
 "http://www.w3.org/Graphics/SVG/1.1/DTD/svg11.dtd">
<!-- Generated by graphviz version 2.43.0 (0)
 -->
<!-- Title: G Pages: 1 -->
<svg width="366pt" height="188pt"
 viewBox="0.00 0.00 366.28 188.00" xmlns="http://www.w3.org/2000/svg" xmlns:xlink="http://www.w3.org/1999/xlink">
<g id="graph0" class="graph" transform="scale(1 1) rotate(0) translate(4 184)">
<title>G</title>
<polygon fill="white" stroke="transparent" points="-4,4 -4,-184 362.28,-184 362.28,4 -4,4"/>
<!-- 1 -->
<g id="node1" class="node">
<title>1</title>
<ellipse fill="none" stroke="black" cx="85.14" cy="-162" rx="85.29" ry="18"/>
<text text-anchor="middle" x="85.14" y="-158.3" font-family="Times,serif" font-size="14.00">psi[0] ~ gamma</text>
</g>
<!-- 3 -->
<g id="node3" class="node">
<title>3</title>
<ellipse fill="none" stroke="black" cx="98.14" cy="-90" rx="69.59" ry="18"/>
<text text-anchor="middle" x="98.14" y="-86.3" font-family="Times,serif" font-size="14.00">theta ~ beta</text>
</g>
<!-- 1&#45;&gt;3 -->
<g id="edge1" class="edge">
<title>1&#45;&gt;3</title>
<path fill="none" stroke="black" d="M88.36,-143.7C89.79,-135.98 91.51,-126.71 93.11,-118.11"/>
<polygon fill="black" stroke="black" points="96.58,-118.58 94.97,-108.1 89.7,-117.3 96.58,-118.58"/>
</g>
<!-- 4 -->
<g id="node4" class="node">
<title>4</title>
<ellipse fill="none" stroke="black" cx="266.14" cy="-90" rx="69.59" ry="18"/>
<text text-anchor="middle" x="266.14" y="-86.3" font-family="Times,serif" font-size="14.00">theta ~ beta</text>
</g>
<!-- 1&#45;&gt;4 -->
<g id="edge2" class="edge">
<title>1&#45;&gt;4</title>
<path fill="none" stroke="black" d="M124.42,-145.81C152.35,-135.01 189.98,-120.45 219.45,-109.06"/>
<polygon fill="black" stroke="black" points="221.04,-112.19 229.11,-105.32 218.52,-105.67 221.04,-112.19"/>
</g>
<!-- 2 -->
<g id="node2" class="node">
<title>2</title>
<ellipse fill="none" stroke="black" cx="273.14" cy="-162" rx="85.29" ry="18"/>
<text text-anchor="middle" x="273.14" y="-158.3" font-family="Times,serif" font-size="14.00">psi[1] ~ gamma</text>
</g>
<!-- 2&#45;&gt;3 -->
<g id="edge3" class="edge">
<title>2&#45;&gt;3</title>
<path fill="none" stroke="black" d="M235.17,-145.81C208.26,-135.05 172.02,-120.55 143.57,-109.17"/>
<polygon fill="black" stroke="black" points="144.83,-105.91 134.25,-105.44 142.23,-112.41 144.83,-105.91"/>
</g>
<!-- 2&#45;&gt;4 -->
<g id="edge4" class="edge">
<title>2&#45;&gt;4</title>
<path fill="none" stroke="black" d="M271.41,-143.7C270.64,-135.98 269.71,-126.71 268.85,-118.11"/>
<polygon fill="black" stroke="black" points="272.33,-117.71 267.85,-108.1 265.37,-118.4 272.33,-117.71"/>
</g>
<!-- 5 -->
<g id="node5" class="node">
<title>5</title>
<ellipse fill="none" stroke="black" cx="98.14" cy="-18" rx="71.49" ry="18"/>
<text text-anchor="middle" x="98.14" y="-14.3" font-family="Times,serif" font-size="14.00">y[0] ~ binom</text>
</g>
<!-- 3&#45;&gt;5 -->
<g id="edge5" class="edge">
<title>3&#45;&gt;5</title>
<path fill="none" stroke="black" d="M98.14,-71.7C98.14,-63.98 98.14,-54.71 98.14,-46.11"/>
<polygon fill="black" stroke="black" points="101.64,-46.1 98.14,-36.1 94.64,-46.1 101.64,-46.1"/>
</g>
<!-- 6 -->
<g id="node6" class="node">
<title>6</title>
<ellipse fill="none" stroke="black" cx="266.14" cy="-18" rx="71.49" ry="18"/>
<text text-anchor="middle" x="266.14" y="-14.3" font-family="Times,serif" font-size="14.00">y[1] ~ binom</text>
</g>
<!-- 4&#45;&gt;6 -->
<g id="edge6" class="edge">
<title>4&#45;&gt;6</title>
<path fill="none" stroke="black" d="M266.14,-71.7C266.14,-63.98 266.14,-54.71 266.14,-46.11"/>
<polygon fill="black" stroke="black" points="269.64,-46.1 266.14,-36.1 262.64,-46.1 269.64,-46.1"/>
</g>
</g>
</svg>
