<?xml version="1.0" encoding="UTF-8" standalone="no"?>
<!DOCTYPE svg PUBLIC "-//W3C//DTD SVG 1.1//EN"
 "http://www.w3.org/Graphics/SVG/1.1/DTD/svg11.dtd">
<!-- Generated by graphviz version 2.43.0 (0)
 -->
<!-- Title: G Pages: 1 -->
<svg width="286pt" height="260pt"
 viewBox="0.00 0.00 286.18 260.00" xmlns="http://www.w3.org/2000/svg" xmlns:xlink="http://www.w3.org/1999/xlink">
<g id="graph0" class="graph" transform="scale(1 1) rotate(0) translate(4 256)">
<title>G</title>
<polygon fill="white" stroke="transparent" points="-4,4 -4,-256 282.18,-256 282.18,4 -4,4"/>
<!-- 0 -->
<g id="node1" class="node">
<title>0</title>
<ellipse fill="none" stroke="black" cx="139.09" cy="-234" rx="69.59" ry="18"/>
<text text-anchor="middle" x="139.09" y="-230.3" font-family="Times,serif" font-size="14.00">l0 ~ uniform</text>
</g>
<!-- 1 -->
<g id="node2" class="node">
<title>1</title>
<ellipse fill="none" stroke="black" cx="139.09" cy="-162" rx="139.18" ry="18"/>
<text text-anchor="middle" x="139.09" y="-158.3" font-family="Times,serif" font-size="14.00">l1 ~ half_normal(sigma=l0)</text>
</g>
<!-- 0&#45;&gt;1 -->
<g id="edge1" class="edge">
<title>0&#45;&gt;1</title>
<path fill="none" stroke="black" d="M139.09,-215.7C139.09,-207.98 139.09,-198.71 139.09,-190.11"/>
<polygon fill="black" stroke="black" points="142.59,-190.1 139.09,-180.1 135.59,-190.1 142.59,-190.1"/>
</g>
<!-- 2 -->
<g id="node3" class="node">
<title>2</title>
<ellipse fill="none" stroke="black" cx="139.09" cy="-90" rx="139.18" ry="18"/>
<text text-anchor="middle" x="139.09" y="-86.3" font-family="Times,serif" font-size="14.00">l2 ~ half_normal(sigma=l1)</text>
</g>
<!-- 1&#45;&gt;2 -->
<g id="edge2" class="edge">
<title>1&#45;&gt;2</title>
<path fill="none" stroke="black" d="M139.09,-143.7C139.09,-135.98 139.09,-126.71 139.09,-118.11"/>
<polygon fill="black" stroke="black" points="142.59,-118.1 139.09,-108.1 135.59,-118.1 142.59,-118.1"/>
</g>
<!-- 3 -->
<g id="node4" class="node">
<title>3</title>
<ellipse fill="none" stroke="black" cx="139.09" cy="-18" rx="135.68" ry="18"/>
<text text-anchor="middle" x="139.09" y="-14.3" font-family="Times,serif" font-size="14.00">y ~ half_normal(sigma=l2)</text>
</g>
<!-- 2&#45;&gt;3 -->
<g id="edge3" class="edge">
<title>2&#45;&gt;3</title>
<path fill="none" stroke="black" d="M139.09,-71.7C139.09,-63.98 139.09,-54.71 139.09,-46.11"/>
<polygon fill="black" stroke="black" points="142.59,-46.1 139.09,-36.1 135.59,-46.1 142.59,-46.1"/>
</g>
</g>
</svg>
